<?xml version="1.0" encoding="UTF-8" standalone="no"?><!DOCTYPE svg PUBLIC "-//W3C//DTD SVG 1.1//EN" "http://www.w3.org/Graphics/SVG/1.1/DTD/svg11.dtd"><svg width="100%" height="100%" viewBox="0 0 24 24" version="1.1" xmlns="http://www.w3.org/2000/svg" xmlns:xlink="http://www.w3.org/1999/xlink" xml:space="preserve" xmlns:serif="http://www.serif.com/" style="fill-rule:evenodd;clip-rule:evenodd;stroke-linejoin:round;stroke-miterlimit:2;"><g id="Icon"><path d="M18.048,5.952c1.224,1.224 1.224,3.212 -0,4.436c-1.224,1.224 -3.212,1.224 -4.436,0c-1.224,-1.224 -1.224,-3.212 -0,-4.436c1.224,-1.224 3.212,-1.224 4.436,0Zm-1.061,1.061c-0.639,-0.639 -1.676,-0.639 -2.315,-0c-0.638,0.639 -0.638,1.676 0,2.315c0.639,0.638 1.676,0.638 2.315,-0c0.639,-0.639 0.639,-1.676 0,-2.315Z"/><path d="M21.761,2.239c0.252,0.253 0.665,0.98 0.861,2.093c0.39,2.217 0.042,6.166 -4.237,10.444c-1.063,1.064 -3.02,2.379 -4.875,3.186c-1.331,0.579 -2.621,0.88 -3.534,0.738c-0.157,-0.025 -0.302,-0.098 -0.415,-0.211l-4.05,-4.05c-0.113,-0.113 -0.186,-0.258 -0.211,-0.415c-0.142,-0.913 0.159,-2.203 0.738,-3.534c0.807,-1.855 2.122,-3.812 3.186,-4.875c4.278,-4.279 8.227,-4.627 10.444,-4.237c1.113,0.196 1.84,0.609 2.093,0.861Zm-1.061,1.061c-0.153,-0.152 -0.62,-0.327 -1.292,-0.445c-1.946,-0.342 -5.369,0.066 -9.124,3.82c-0.961,0.962 -2.141,2.736 -2.87,4.413c-0.4,0.919 -0.679,1.8 -0.653,2.48c0,-0 3.671,3.671 3.672,3.671c0.679,0.026 1.56,-0.253 2.479,-0.653c1.677,-0.729 3.451,-1.909 4.413,-2.87c3.754,-3.755 4.162,-7.178 3.82,-9.124c-0.118,-0.672 -0.293,-1.139 -0.445,-1.292Z"/><path d="M12.416,21.065l3.833,-2.396c0.082,-0.051 0.127,-0.144 0.116,-0.24l-0.336,-3.02c-0.045,-0.412 0.252,-0.783 0.663,-0.828c0.411,-0.046 0.783,0.251 0.828,0.662l0.336,3.021c0.074,0.668 -0.241,1.32 -0.812,1.677l-4.178,2.611c-0.368,0.23 -0.829,0.253 -1.218,0.06c-0.389,-0.193 -0.65,-0.574 -0.689,-1.007l-0.264,-2.903c-0.038,-0.412 0.267,-0.778 0.679,-0.815c0.412,-0.037 0.777,0.267 0.815,0.679l0.227,2.499Z"/><path d="M2.935,11.584l2.499,0.227c0.412,0.038 0.716,0.403 0.679,0.815c-0.037,0.412 -0.403,0.717 -0.815,0.679l-2.903,-0.264c-0.433,-0.039 -0.814,-0.3 -1.007,-0.689c-0.193,-0.389 -0.17,-0.85 0.06,-1.218l2.611,-4.178c0.357,-0.571 1.009,-0.886 1.677,-0.812l3.021,0.336c0.411,0.045 0.708,0.417 0.662,0.828c-0.045,0.411 -0.416,0.708 -0.828,0.663l-3.02,-0.336c-0.096,-0.011 -0.189,0.034 -0.24,0.116l-2.396,3.833Z"/><path d="M14.672,16.078c0.293,0.293 0.293,0.768 0,1.061c-0.292,0.293 -0.768,0.293 -1.06,0l-6.751,-6.751c-0.293,-0.292 -0.293,-0.768 -0,-1.06c0.293,-0.293 0.768,-0.293 1.061,-0l6.75,6.75Z"/><path d="M4.161,14.728c0.292,-0.292 0.768,-0.292 1.06,0c0.293,0.293 0.293,0.768 0,1.061l-1.687,1.688c-0.293,0.292 -0.768,0.292 -1.061,-0c-0.293,-0.293 -0.293,-0.768 0,-1.061l1.688,-1.688Z"/><path d="M8.211,18.779c0.293,-0.293 0.768,-0.293 1.061,-0c0.292,0.292 0.292,0.768 -0,1.06l-1.688,1.688c-0.293,0.293 -0.768,0.293 -1.061,-0c-0.292,-0.293 -0.292,-0.768 0,-1.061l1.688,-1.687Z"/><path d="M5.511,17.429c0.293,-0.293 0.768,-0.293 1.06,-0c0.293,0.292 0.293,0.767 0,1.06l-2.025,2.025c-0.292,0.293 -0.768,0.293 -1.06,0c-0.293,-0.292 -0.293,-0.768 -0,-1.06l2.025,-2.025Z"/></g></svg>